<svg width="42" height="42" viewBox="0 0 42 42" fill="none" xmlns="http://www.w3.org/2000/svg">
<circle cx="21" cy="21" r="20" fill="#78003B" stroke="white" stroke-width="2"/>
<path d="M10.9561 19.1234V17.9664C10.9561 17.3236 11.4783 16.8014 12.1211 16.8014H20.9915C21.1522 16.8014 21.2807 16.6728 21.2807 16.5121V14.5677C21.2807 13.7883 22.2289 13.4027 22.7752 13.9571L27.5559 18.8101C28.1023 19.3645 27.7086 20.2965 26.9372 20.2965H12.1211C11.4783 20.2885 10.9561 19.7662 10.9561 19.1234Z" fill="white"/>
<path d="M14.4432 24.3943C13.8968 23.8399 14.2905 22.9078 15.0618 22.9078H29.878C30.5207 22.9078 31.043 23.4301 31.043 24.0729V25.2379C31.043 25.8807 30.5207 26.4029 29.878 26.4029H21.0076C20.8469 26.4029 20.7183 26.5315 20.7183 26.6922V28.6366C20.7183 29.416 19.7702 29.8017 19.2238 29.2473L14.4432 24.3943Z" fill="white"/>
</svg>
