<svg width="16" height="16" viewBox="0 0 16 16" fill="none" xmlns="http://www.w3.org/2000/svg">
<path d="M5.83398 1.33269C5.70138 1.33269 5.5742 1.38537 5.48043 1.47913C5.38666 1.5729 5.33398 1.70008 5.33398 1.83269C5.33398 1.9653 5.38666 2.09247 5.48043 2.18624C5.5742 2.28001 5.70138 2.33269 5.83398 2.33269H6.00065V3.33269H5.50065C4.92602 3.33269 4.37492 3.56096 3.96859 3.96729C3.56226 4.37362 3.33398 4.92472 3.33398 5.49935V11.4994C3.33398 11.9271 3.4606 12.3453 3.69788 12.7012C3.93515 13.0571 4.27247 13.3348 4.66732 13.4994V14.166C4.66732 14.2986 4.72 14.4258 4.81376 14.5196C4.90753 14.6133 5.03471 14.666 5.16732 14.666C5.29993 14.666 5.4271 14.6133 5.52087 14.5196C5.61464 14.4258 5.66732 14.2986 5.66732 14.166V13.666H10.334V14.166C10.334 14.2986 10.3867 14.4258 10.4804 14.5196C10.5742 14.6133 10.7014 14.666 10.834 14.666C10.9666 14.666 11.0938 14.6133 11.1875 14.5196C11.2813 14.4258 11.334 14.2986 11.334 14.166V13.4994C11.7288 13.3348 12.0662 13.0571 12.3034 12.7012C12.5407 12.3453 12.6673 11.9271 12.6673 11.4994V5.49935C12.6673 4.92472 12.439 4.37362 12.0327 3.96729C11.6264 3.56096 11.0753 3.33269 10.5007 3.33269H10.0007V2.33269H10.1673C10.2999 2.33269 10.4271 2.28001 10.5209 2.18624C10.6146 2.09247 10.6673 1.9653 10.6673 1.83269C10.6673 1.70008 10.6146 1.5729 10.5209 1.47913C10.4271 1.38537 10.2999 1.33269 10.1673 1.33269H5.83398ZM9.00065 2.33269V3.33269H7.00065V2.33269H9.00065ZM5.33398 6.49935C5.33398 6.36675 5.38666 6.23957 5.48043 6.1458C5.5742 6.05203 5.70138 5.99935 5.83398 5.99935H10.1673C10.2999 5.99935 10.4271 6.05203 10.5209 6.1458C10.6146 6.23957 10.6673 6.36675 10.6673 6.49935C10.6673 6.63196 10.6146 6.75914 10.5209 6.85291C10.4271 6.94668 10.2999 6.99935 10.1673 6.99935H5.83398C5.70138 6.99935 5.5742 6.94668 5.48043 6.85291C5.38666 6.75914 5.33398 6.63196 5.33398 6.49935Z" fill="#78003B"/>
</svg>
