<svg width="30" height="21" viewBox="0 0 30 21" fill="none" xmlns="http://www.w3.org/2000/svg">
<path d="M0.591797 20.2939H29.4082C29.4453 20.2939 29.495 20.3283 29.4951 20.3945C29.4951 20.4608 29.4454 20.4951 29.4082 20.4951H0.591797C0.554634 20.4951 0.504883 20.4608 0.504883 20.3945C0.504963 20.3283 0.554667 20.2939 0.591797 20.2939ZM26.335 0.678711C27.3901 0.218517 28.6976 0.704204 29.2275 1.78711C29.5011 2.34611 29.5411 2.97712 29.3398 3.56836C29.1639 4.08532 28.8265 4.50602 28.3779 4.77832L28.1787 4.88574L19.2979 9.12988C19.2631 9.14643 19.2126 9.13579 19.1885 9.08301C19.1621 9.02471 19.1912 8.96415 19.2324 8.94434L28.1133 4.7002C28.619 4.45866 28.9975 4.02837 29.1787 3.49609C29.3599 2.96392 29.324 2.38944 29.0771 1.88477C28.5967 0.902938 27.4122 0.430994 26.4072 0.861328L26.3975 0.865234L26.3877 0.870117L19.7764 4.04785C19.758 4.05653 19.7386 4.05754 19.7207 4.05176L9.83984 0.854492L9.63867 0.789062L9.45117 0.886719L7.31445 2.00195L6.63086 2.35938L7.23145 2.84277L12.7246 7.27051C12.7491 7.29028 12.7652 7.32648 12.7607 7.36621C12.7562 7.40555 12.7334 7.43407 12.708 7.44629L7.72949 9.84473C7.72023 9.84916 7.71072 9.85197 7.70117 9.85254L7.67285 9.84863L3.49512 8.43066L3.26758 8.35352L3.06445 8.48145L1.44043 9.5L0.795898 9.9043L1.41992 10.3418L5.02734 12.8633C6.52525 13.9105 8.47694 14.0746 10.123 13.2891V13.2881L14.4199 11.2344C14.4552 11.2177 14.5054 11.2283 14.5293 11.2803C14.5493 11.3242 14.5383 11.3702 14.5137 11.3984L14.4854 11.4199L10.1885 13.4736C9.47747 13.8131 8.70999 13.9814 7.94434 13.9814C6.88643 13.9814 5.83304 13.6613 4.9375 13.0352L0.577148 9.98633C0.552741 9.96926 0.533356 9.93653 0.53418 9.89746C0.535128 9.85832 0.555548 9.82691 0.580078 9.81152L3.2168 8.15723C3.22706 8.15084 3.23803 8.1468 3.24902 8.14551L3.28223 8.14941L7.49609 9.5791L7.69238 9.64551L7.87793 9.55664L11.7764 7.67773L12.4961 7.33105L11.874 6.83008L6.40723 2.42285C6.38315 2.40345 6.36636 2.36827 6.37012 2.3291C6.37392 2.2903 6.39614 2.26202 6.4209 2.24902L9.59668 0.59082C9.61517 0.581255 9.63554 0.579963 9.6543 0.585938L19.5459 3.78711L19.7383 3.84961L19.9209 3.76172L26.3301 0.679688L26.3311 0.680664C26.3326 0.679937 26.3338 0.679749 26.334 0.679688L26.335 0.678711ZM16.8203 10.0811C16.855 10.0645 16.9058 10.0747 16.9297 10.127C16.9559 10.1848 16.9266 10.2448 16.8857 10.2646C16.8511 10.2812 16.8012 10.271 16.7773 10.2188C16.7509 10.1608 16.7794 10.1009 16.8203 10.0811Z" fill="#925A76" stroke="#AD8398" stroke-width="1.00986"/>
</svg>
