<svg width="22" height="27" viewBox="0 0 22 27" fill="none" xmlns="http://www.w3.org/2000/svg">
<path d="M12.1543 16.7435C11.9272 16.7435 11.7431 16.9272 11.7431 17.1537C11.7431 17.3802 11.9272 17.5638 12.1543 17.5638H12.1566C12.3837 17.5638 12.5666 17.3802 12.5666 17.1537C12.5666 16.9272 12.3813 16.7435 12.1543 16.7435Z" fill="#925A76"/>
<path d="M17.7596 16.7951V16.1596C17.7596 15.3854 17.1271 14.7555 16.3498 14.7555H8.18012L7.87378 13.0797H13.689C14.4581 13.0797 15.0837 12.4566 15.0837 11.6906C15.0837 10.9247 14.4581 10.3015 13.689 10.3015H7.54535C7.4852 10.3015 7.42608 10.3058 7.36794 10.3132L7.11381 8.92396L8.03581 8.75756C8.37649 8.69583 8.67317 8.50506 8.87134 8.22042C9.06984 7.93528 9.14492 7.5912 9.08275 7.25134L8.63777 4.82285C8.50957 4.12185 7.832 3.65415 7.12606 3.78024L6.15242 3.95685C5.84431 3.29125 5.11255 2.88954 4.3567 3.02682C3.92253 3.10561 3.54485 3.34883 3.29339 3.7117C3.04275 4.07329 2.94823 4.50953 3.02713 4.93979L5.53957 18.683C5.65753 19.3268 6.14165 19.825 6.75459 19.9814V22.4819C6.75459 23.319 7.43784 24 8.27769 24H16.2353C17.0758 24 17.7596 23.319 17.7596 22.4819V19.9816C18.472 19.7992 19 19.1541 19 18.3884C19 17.6227 18.472 16.9776 17.7596 16.7951ZM7.54535 11.1219H13.689C14.0046 11.1219 14.2614 11.377 14.2614 11.6906C14.2614 12.0042 14.0046 12.2594 13.689 12.2594H7.54535C7.22975 12.2594 6.97303 12.0042 6.97303 11.6906C6.97299 11.377 7.22975 11.1219 7.54535 11.1219ZM7.2721 4.58746C7.53215 4.54091 7.78172 4.71264 7.82884 4.97018L8.27382 7.39871C8.29639 7.52225 8.26872 7.64788 8.19591 7.75251C8.12281 7.85751 8.01373 7.92777 7.88911 7.95037L6.96617 8.11693L6.35109 4.75448L7.2721 4.58746ZM16.9373 22.4819C16.9373 22.8666 16.6224 23.1796 16.2353 23.1796H8.27769C7.89129 23.1796 7.57689 22.8666 7.57689 22.4819V20.0332H16.9373V22.4819ZM17.3484 19.2129H7.16574C6.75759 19.2129 6.42152 18.9343 6.3485 18.5357L3.83602 4.79234C3.79663 4.57754 3.84412 4.35946 3.96973 4.17821C4.09619 3.99573 4.2859 3.87342 4.50397 3.83388C4.95368 3.75222 5.38625 4.05012 5.46828 4.49805L6.59778 10.6727C6.32305 10.9265 6.1507 11.2888 6.1507 11.6907C6.1507 12.2712 6.51025 12.7694 7.01904 12.9767L7.79607 17.2273C7.83172 17.4222 8.00193 17.5638 8.20056 17.5638H10.3042C10.5312 17.5638 10.7153 17.3802 10.7153 17.1537C10.7153 16.9272 10.5312 16.7435 10.3042 16.7435H8.54349L8.33003 15.5758H16.3497C16.6736 15.5758 16.9372 15.8377 16.9372 16.1596V16.7435H14.0043C13.7772 16.7435 13.5932 16.9271 13.5932 17.1536C13.5932 17.3802 13.7772 17.5638 14.0043 17.5638H17.3483C17.8056 17.5638 18.1776 17.9337 18.1776 18.3883C18.1776 18.843 17.8057 19.2129 17.3484 19.2129Z" fill="#925A76"/>
<path d="M12.1543 16.7435C11.9272 16.7435 11.7431 16.9272 11.7431 17.1537C11.7431 17.3802 11.9272 17.5638 12.1543 17.5638H12.1566C12.3837 17.5638 12.5666 17.3802 12.5666 17.1537C12.5666 16.9272 12.3813 16.7435 12.1543 16.7435Z" stroke="#AD8398" stroke-width="0.25"/>
<path d="M17.7596 16.7951V16.1596C17.7596 15.3854 17.1271 14.7555 16.3498 14.7555H8.18012L7.87378 13.0797H13.689C14.4581 13.0797 15.0837 12.4566 15.0837 11.6906C15.0837 10.9247 14.4581 10.3015 13.689 10.3015H7.54535C7.4852 10.3015 7.42608 10.3058 7.36794 10.3132L7.11381 8.92396L8.03581 8.75756C8.37649 8.69583 8.67317 8.50506 8.87134 8.22042C9.06984 7.93528 9.14492 7.5912 9.08275 7.25134L8.63777 4.82285C8.50957 4.12185 7.832 3.65415 7.12606 3.78024L6.15242 3.95685C5.84431 3.29125 5.11255 2.88954 4.3567 3.02682C3.92253 3.10561 3.54485 3.34883 3.29339 3.7117C3.04275 4.07329 2.94823 4.50953 3.02713 4.93979L5.53957 18.683C5.65753 19.3268 6.14165 19.825 6.75459 19.9814V22.4819C6.75459 23.319 7.43784 24 8.27769 24H16.2353C17.0758 24 17.7596 23.319 17.7596 22.4819V19.9816C18.472 19.7992 19 19.1541 19 18.3884C19 17.6227 18.472 16.9776 17.7596 16.7951ZM7.54535 11.1219H13.689C14.0046 11.1219 14.2614 11.377 14.2614 11.6906C14.2614 12.0042 14.0046 12.2594 13.689 12.2594H7.54535C7.22975 12.2594 6.97303 12.0042 6.97303 11.6906C6.97299 11.377 7.22975 11.1219 7.54535 11.1219ZM7.2721 4.58746C7.53215 4.54091 7.78172 4.71264 7.82884 4.97018L8.27382 7.39871C8.29639 7.52225 8.26872 7.64788 8.19591 7.75251C8.12281 7.85751 8.01373 7.92777 7.88911 7.95037L6.96617 8.11693L6.35109 4.75448L7.2721 4.58746ZM16.9373 22.4819C16.9373 22.8666 16.6224 23.1796 16.2353 23.1796H8.27769C7.89129 23.1796 7.57689 22.8666 7.57689 22.4819V20.0332H16.9373V22.4819ZM17.3484 19.2129H7.16574C6.75759 19.2129 6.42152 18.9343 6.3485 18.5357L3.83602 4.79234C3.79663 4.57754 3.84412 4.35946 3.96973 4.17821C4.09619 3.99573 4.2859 3.87342 4.50397 3.83388C4.95368 3.75222 5.38625 4.05012 5.46828 4.49805L6.59778 10.6727C6.32305 10.9265 6.1507 11.2888 6.1507 11.6907C6.1507 12.2712 6.51025 12.7694 7.01904 12.9767L7.79607 17.2273C7.83172 17.4222 8.00193 17.5638 8.20056 17.5638H10.3042C10.5312 17.5638 10.7153 17.3802 10.7153 17.1537C10.7153 16.9272 10.5312 16.7435 10.3042 16.7435H8.54349L8.33003 15.5758H16.3497C16.6736 15.5758 16.9372 15.8377 16.9372 16.1596V16.7435H14.0043C13.7772 16.7435 13.5932 16.9271 13.5932 17.1536C13.5932 17.3802 13.7772 17.5638 14.0043 17.5638H17.3483C17.8056 17.5638 18.1776 17.9337 18.1776 18.3883C18.1776 18.843 17.8057 19.2129 17.3484 19.2129Z" stroke="#AD8398" stroke-width="0.25"/>
</svg>
