<svg width="45" height="50" viewBox="0 0 45 50" fill="none" xmlns="http://www.w3.org/2000/svg">
<path d="M26.9473 9.72736C27.2611 9.40761 27.2611 8.88919 26.9473 8.56944C26.6335 8.24969 26.1247 8.24969 25.8109 8.56944C25.4971 8.88919 25.4971 9.40761 25.8109 9.72737C26.1247 10.0471 26.6335 10.0471 26.9473 9.72736Z" fill="white"/>
<path d="M15.2986 49.8724L21.7502 45.7207L21.7503 49.1802C21.7505 49.6323 22.1102 49.9988 22.554 49.9988C22.9978 49.9987 23.3575 49.6323 23.3576 49.1799L23.3574 45.7857L29.7082 49.8723C30.2429 50.2165 30.9392 49.824 30.9408 49.1821L30.9533 44.2563C30.9539 44.0384 30.8692 43.8294 30.718 43.6753L27.341 40.2344C27.3755 38.1226 27.577 33.8603 27.6956 29.0955L43.9885 33.5428C44.4979 33.6819 44.9999 33.2909 45 32.752V27.8389C44.9999 27.5528 44.8535 27.2875 44.6135 27.1391L40.2288 24.4264V20.4692C40.2288 20.0171 39.869 19.6505 39.4252 19.6504C38.9814 19.6505 38.6217 20.017 38.6216 20.4692V23.4321L35.4074 21.4437L35.4069 18.0132C35.4068 17.561 35.047 17.1945 34.6033 17.1945C34.1594 17.1946 33.7998 17.5612 33.7998 18.0135L33.8002 20.4493L27.6964 16.6733C27.6493 15.2813 27.5827 13.9665 27.4977 12.7604C27.466 12.3094 27.0814 11.9699 26.6387 12.0023C26.1963 12.0346 25.863 12.4263 25.8948 12.8775C25.9873 14.1925 26.0581 15.6397 26.105 17.1791C26.3905 26.5134 25.7608 36.908 25.7296 40.562C25.7277 40.7816 25.8126 40.9927 25.9649 41.148L29.3454 44.5924L29.3375 47.697L23.3573 43.8488L23.3571 39.3544C23.3571 38.9023 22.9973 38.5357 22.5534 38.5356C22.1096 38.5357 21.7499 38.9022 21.7498 39.3544L21.7501 43.7838L15.6693 47.6969L15.6614 44.5925L19.0419 41.1481C19.1943 40.9928 19.279 40.7816 19.2772 40.562C19.2476 37.0614 18.6184 26.492 18.9046 17.1755C19.0548 12.3337 19.4347 8.54443 20.0338 5.91293C20.6615 3.15609 21.5372 1.63742 22.4997 1.63754C23.4442 1.63771 24.3081 3.08691 24.9325 5.71811C25.0368 6.15766 25.4711 6.42781 25.9024 6.32151C26.3338 6.21521 26.5989 5.77277 26.4946 5.33322C25.9355 2.97743 24.8671 0.000579005 22.4999 0C20.0758 5.79447e-05 19.014 3.14585 18.4682 5.54298C17.8646 8.1941 17.4762 11.9352 17.3132 16.6678L11.3001 20.3877V18.0133C11.3001 17.5612 10.9403 17.1946 10.4965 17.1946C10.0527 17.1946 9.69302 17.5611 9.6929 18.0134L9.69296 21.3819L6.47885 23.3701L6.47885 20.4699C6.47885 20.0177 6.11906 19.6511 5.67524 19.6511C5.23141 19.6511 4.87174 20.0176 4.87162 20.4699L4.87162 24.3644L0.386494 27.1391C0.146825 27.2873 -0.000113562 27.553 6.58538e-08 27.8391L0.000568856 32.7516C0.000682511 33.2886 0.501272 33.6817 1.01203 33.5424L17.3102 29.0939C17.4285 33.906 17.6305 38.1346 17.6657 40.2345L14.2887 43.6754C14.1375 43.8294 14.0528 44.0386 14.0534 44.2564L14.0659 49.1823C14.0676 49.825 14.7648 50.2158 15.2986 49.8724ZM27.7489 18.6217L43.3927 28.2997V31.685L27.733 27.4105C27.7974 24.1301 27.8027 21.2348 27.7489 18.6217ZM1.60723 28.2997L17.2603 18.6164C17.2061 21.2294 17.2104 24.1258 17.2733 27.4088L1.60757 31.6845L1.60723 28.2997Z" fill="white"/>
</svg>
