<svg width="30" height="23" viewBox="0 0 30 23" fill="none" xmlns="http://www.w3.org/2000/svg">
<path d="M0.591797 22.3418H29.4082C29.4646 22.3418 29.4951 22.3851 29.4951 22.4189C29.4949 22.4527 29.4644 22.4951 29.4082 22.4951H0.591797C0.535615 22.4951 0.505067 22.4527 0.504883 22.4189C0.504883 22.3851 0.535446 22.3418 0.591797 22.3418ZM11.6006 0.507812L15.0723 1.30371C15.0968 1.30933 15.1153 1.32427 15.126 1.34082L20.665 9.95996L20.7705 10.125L20.9609 10.1748L27.8037 11.9775L27.8057 11.9785V11.9775L27.8066 11.9785C28.9161 12.3136 29.5956 13.5036 29.3223 14.6143C29.1809 15.1885 28.82 15.6709 28.2979 15.9746C27.9479 16.1781 27.5603 16.2812 27.168 16.2812C26.9726 16.2812 26.7749 16.2553 26.5791 16.2031L17.1172 13.6885C17.066 13.6749 17.049 13.6299 17.0576 13.5977C17.0676 13.5613 17.1129 13.5276 17.167 13.542L26.6289 16.0566C27.0969 16.1811 27.5846 16.1401 28.0195 15.9414L28.2021 15.8467C28.6806 15.5684 29.0204 15.1181 29.1523 14.582C29.4093 13.5372 28.7901 12.4444 27.7637 12.127L27.7529 12.124L27.7432 12.1211L20.6875 10.2627C20.6647 10.2566 20.647 10.2426 20.6367 10.2266L15.1045 1.61719L14.9932 1.44336L14.793 1.39746L12.457 0.862305L11.6895 0.685547L11.8496 1.45703L13.2539 8.18848C13.2585 8.21053 13.252 8.2358 13.2314 8.25488C13.21 8.27468 13.1771 8.28381 13.1445 8.27539L7.82812 6.87988C7.8046 6.87371 7.78661 6.85921 7.77637 6.84277H7.77539L5.47852 3.1543L5.35449 2.95703L5.12402 2.92188L3.24121 2.64062L2.46875 2.52539L2.68066 3.27734L3.84668 7.41406C4.33191 9.13671 5.72013 10.4899 7.4668 10.9551L7.46777 10.9561L12.0459 12.1719C12.0969 12.1856 12.1143 12.2305 12.1055 12.2627C12.0956 12.2984 12.0505 12.3326 11.9961 12.3184L7.41699 11.1016H7.41797C5.60738 10.6195 4.17544 9.2172 3.67773 7.4502L2.26855 2.44824C2.26557 2.43753 2.26596 2.42617 2.26855 2.41504L2.28516 2.38281C2.30333 2.3627 2.33378 2.3498 2.36719 2.35449L5.4248 2.8125C5.4531 2.81673 5.47558 2.83181 5.4873 2.85059L7.80469 6.57227L7.91113 6.74219L8.10547 6.79297L12.2686 7.88574L13.0576 8.09277L12.8916 7.29492L11.4941 0.594727L11.4951 0.561523C11.4986 0.550202 11.5056 0.538852 11.5156 0.529297C11.5364 0.509706 11.5685 0.500445 11.6006 0.507812ZM14.6074 12.8467C14.6583 12.8602 14.6748 12.9056 14.666 12.9375C14.656 12.9728 14.6116 13.0066 14.5576 12.9922C14.507 12.9786 14.4904 12.9342 14.499 12.9023C14.5088 12.8667 14.5533 12.8323 14.6074 12.8467Z" fill="#925A76" stroke="#AD8398" stroke-width="1.00986"/>
</svg>
