<svg width="19" height="23" viewBox="0 0 19 23" fill="none" xmlns="http://www.w3.org/2000/svg">
<path d="M18.2695 18.0254H17.8359M18.2695 18.0254V17.6113M18.2695 18.0254C18.4148 18.0253 18.5557 17.9797 18.6748 17.8965L18.7861 17.8008C18.8639 17.7193 18.9191 17.6202 18.9551 17.5137C18.9581 17.429 18.9619 17.3444 18.9619 17.2598C18.9619 17.1745 18.9581 17.0891 18.9551 17.0039C18.9191 16.898 18.8634 16.7998 18.7861 16.7188C18.776 16.7081 18.7636 16.6994 18.7529 16.6895C18.7388 16.7023 18.7261 16.7167 18.7119 16.7295C18.5315 16.8925 18.3453 17.0484 18.1572 17.2012M18.2695 18.0254V17.6113M17.8359 18.0254L18.2695 17.6113M17.8359 18.0254L18.2695 17.6113M17.8359 18.0254H17.418M17.418 18.0254L18.2197 17.2598M17.418 18.0254H17.1553C17.1443 18.0053 17.1342 17.9848 17.123 17.9648C17.4787 17.7269 17.8237 17.4722 18.1572 17.2012M17.418 18.0254L18.2197 17.2598M18.2197 17.2598L18.1572 17.2012M18.2197 17.2598L18.1572 17.2012" fill="#925A76" stroke="#AD8398" stroke-width="16"/>
</svg>
