<svg width="36" height="40" viewBox="0 0 36 40" fill="none" xmlns="http://www.w3.org/2000/svg">
<circle cx="18" cy="20" r="17" stroke="#C7CACF" stroke-width="2"/>
<mask id="path-2-inside-1_1234_14872" fill="white">
<path d="M2 20C2 11.1634 9.16344 4 18 4V4C26.8366 4 34 11.1634 34 20V20C34 28.8366 26.8366 36 18 36V36C9.16344 36 2 28.8366 2 20V20Z"/>
</mask>
<path d="M2 20C2 11.1634 9.16344 4 18 4V4C26.8366 4 34 11.1634 34 20V20C34 28.8366 26.8366 36 18 36V36C9.16344 36 2 28.8366 2 20V20Z" fill="#EBF0F5"/>
<path d="M2 20M34 20M34 20M2 20M18 4M34 20M18 36M2 20M18 36V33C10.8203 33 5 27.1797 5 20H2H-1C-1 30.4934 7.50659 39 18 39V36ZM34 20H31C31 27.1797 25.1797 33 18 33V36V39C28.4934 39 37 30.4934 37 20H34ZM18 4V7C25.1797 7 31 12.8203 31 20H34H37C37 9.50659 28.4934 1 18 1V4ZM18 4V1C7.50659 1 -1 9.50659 -1 20H2H5C5 12.8203 10.8203 7 18 7V4Z" fill="white" mask="url(#path-2-inside-1_1234_14872)"/>
<rect x="12" y="34" width="12" height="6" fill="white"/>
<rect x="12" width="12" height="6" fill="white"/>
<g clip-path="url(#clip0_1234_14872)">
<path d="M12.3901 16.8883L16.4771 13.8223C16.5101 13.7974 16.5493 13.7822 16.5905 13.7783C16.6316 13.7745 16.673 13.7822 16.71 13.8006C16.747 13.819 16.7781 13.8473 16.7999 13.8824C16.8216 13.9175 16.8331 13.958 16.8331 13.9993V15.7773H22.8331C23.1278 15.7773 23.4104 15.8944 23.6187 16.1028C23.8271 16.3111 23.9441 16.5937 23.9441 16.8883C23.9441 17.183 23.8271 17.4656 23.6187 17.6739C23.4104 17.8823 23.1278 17.9993 22.8331 17.9993H16.8331V19.7773C16.8331 19.9603 16.6231 20.0653 16.4771 19.9553L12.3901 16.8883Z" fill="#77818C"/>
</g>
<g clip-path="url(#clip1_1234_14872)">
<path d="M23.6121 23.1109L19.5221 26.1769C19.4892 26.2012 19.4501 26.216 19.4093 26.2195C19.3685 26.2231 19.3275 26.2153 19.2908 26.1969C19.2542 26.1786 19.2233 26.1505 19.2017 26.1157C19.18 26.0809 19.1684 26.0408 19.1681 25.9999V24.2219H13.1681C12.8735 24.2219 12.5909 24.1048 12.3825 23.8965C12.1742 23.6881 12.0571 23.4055 12.0571 23.1109C12.0571 22.8162 12.1742 22.5336 12.3825 22.3253C12.5909 22.1169 12.8735 21.9999 13.1681 21.9999H19.1681V20.2219C19.1681 20.0389 19.3781 19.9339 19.5241 20.0439L23.6121 23.1109Z" fill="#77818C"/>
</g>
<path d="M11 0H13V5C13 5 12.5 5 12 5.16697C11.5 5.33395 11 5.16697 11 5.16697V0Z" fill="#C7CACF"/>
<path d="M24 0H22V4.94468C22 4.94468 22.5 4.94468 23 5C23.5 5.05532 24 5.1659 24 5.1659V0Z" fill="#C7CACF"/>
<path d="M24 40H22V35.1574C22 35.1574 22.6095 35.1289 23 35.0977C23.3905 35.0664 24 34.8503 24 34.8503V40Z" fill="#C7CACF"/>
<path d="M11 40H13V34.7461C13 34.7461 12.3905 34.7142 12 34.6792C11.6095 34.6442 11 34.4023 11 34.4023V40Z" fill="#C7CACF"/>
<defs>
<clipPath id="clip0_1234_14872">
<rect width="13" height="7" fill="white" transform="translate(11.5 13)"/>
</clipPath>
<clipPath id="clip1_1234_14872">
<rect width="13" height="7" fill="white" transform="translate(11.5 20)"/>
</clipPath>
</defs>
</svg>
