<svg width="16" height="16" viewBox="0 0 16 16" fill="none" xmlns="http://www.w3.org/2000/svg">
<path d="M5.05935 3.60665C4.53935 3.08665 4.53935 2.23998 5.05935 1.71998C5.57935 1.19998 6.42602 1.19998 6.94601 1.71998C7.46601 2.23998 7.46601 3.08665 6.94601 3.60665C6.41935 4.13331 5.57935 4.13331 5.05935 3.60665ZM3.99935 10.6666V5.33331C3.99935 4.96665 3.69935 4.66665 3.33268 4.66665C2.96602 4.66665 2.66602 4.96665 2.66602 5.33331V10.6666C2.66602 12.5066 4.15935 14 5.99935 14H9.33268C9.69935 14 9.99935 13.7 9.99935 13.3333C9.99935 12.9666 9.69935 12.6666 9.33268 12.6666H5.99935C4.89268 12.6666 3.99935 11.7733 3.99935 10.6666ZM12.8527 12.9L10.3393 10.3866C10.0927 10.14 9.75268 9.99998 9.39935 9.99998H7.66601V7.54665C8.39268 8.13998 9.43935 8.67998 10.466 8.89331C10.9127 8.98665 11.3327 8.65331 11.3327 8.19998C11.3327 7.84665 11.0727 7.55998 10.7193 7.49998C9.77268 7.33998 8.79935 6.82665 8.21935 6.18665L7.28602 5.15331C7.15935 5.01331 6.99935 4.89998 6.82601 4.81998C6.63268 4.72665 6.41268 4.66665 6.18601 4.66665H6.16602C5.33935 4.66665 4.66602 5.33998 4.66602 6.16665V9.99998C4.66602 11.1066 5.55935 12 6.66602 12H10.046L11.8993 13.8533C12.1593 14.1133 12.5927 14.1133 12.8527 13.8533C13.1193 13.5933 13.1193 13.1666 12.8527 12.9Z" fill="#78003B"/>
</svg>
